<svg width="30" height="30" viewBox="0 0 30 30" fill="none" xmlns="http://www.w3.org/2000/svg">
<path d="M5.25556 7.6875L15.1867 1.3125L29.2492 10.3125M4.49902 11.8125L15.1867 5.0625L26.8117 12.5625V29.4375H29.9992M10.6867 23.0625V29.25M10.6867 23.0625H15.1867M10.6867 23.0625H5.81169M15.1867 23.0625V29.4375M15.1867 23.0625H19.8742M15.1867 29.4375H3.18669V23.0625H4.31169M15.1867 29.4375H19.8742M19.8742 23.0625V29.4375M19.8742 23.0625H23.8117M19.8742 29.4375H24.5617V23.0625H23.8117M23.8117 23.0625L22.3117 18.5625L21.5617 18.767M5.81169 23.0625L21.5617 18.767M5.81169 23.0625H4.31169M21.5617 18.767L21.1867 18.2148M4.31169 23.0625L5.06169 22.6242M9.18669 20.2135L15.1867 16.707M9.18669 20.2135V16.5M9.18669 20.2135L5.06169 22.6242M21.1867 18.2148L18.7492 14.625L15.1867 16.707M21.1867 18.2148V12H15.1867M15.1867 12H9.18669V16.5M15.1867 12V16.5M15.1867 16.707V16.5M9.18669 16.5H15.1867M1.31152 29.625L1.31169 16.125M1.31169 16.125H5.06169M1.31169 16.125L2.24919 9.1875M5.06169 16.125V22.6242M5.06169 16.125L4.12419 9.1875M4.12419 9.1875H3.18669M4.12419 9.1875C4.12419 9.1875 5.65987 7.8326 5.62402 6.1875C5.58048 4.18937 3.18669 1.125 3.18669 1.125C3.18669 1.125 1.04305 4.25589 0.936663 6.1875C0.842395 7.89902 2.24919 9.1875 2.24919 9.1875M2.24919 9.1875H3.18669M3.18669 9.1875V7.125" stroke="black" stroke-width="0.6"/>
<circle cx="6.84277" cy="26.3438" r="1.29375" stroke="black" stroke-width="0.6"/>
</svg>
